<svg xmlns="http://www.w3.org/2000/svg" width="986pt" height="493pt" viewBox="0.00 0.00 986.35 492.70" xmlns:xlink="http://www.w3.org/1999/xlink">
<style>
a.external_repository_anchor {
  fill: #0366d6;
  text-decoration: underline;
}
</style><g id="graph0" class="graph" transform="scale(1 1) rotate(0) translate(4 488.7)">
<title>CGIResponderDependenciesGraph</title>
<polygon fill="white" stroke="transparent" points="-4,4 -4,-488.7 982.35,-488.7 982.35,4 -4,4" />

<g id="node1" class="node">
<title>BonaFideCharacterSet</title>
<ellipse fill="none" stroke="black" cx="178.33" cy="-206.35" rx="98.08" ry="26.74" />
<text text-anchor="middle" x="178.33" y="-210.15" font-family="monospace" font-size="12px"><a href="https://github.com/YOCKOW/SwiftBonaFideCharacterSet.git" xlink:href="https://github.com/YOCKOW/SwiftBonaFideCharacterSet.git" class="external_repository_anchor">BonaFideCharacterSet</a></text>
<text text-anchor="middle" x="178.33" y="-195.15" font-family="monospace" font-size="12px">@1.6.2</text>
</g>

<g id="node5" class="node">
<title>Predicate</title>
<ellipse fill="none" stroke="black" cx="229.33" cy="-116.61" rx="47.25" ry="26.74" />
<text text-anchor="middle" x="229.33" y="-120.41" font-family="monospace" font-size="12px"><a href="https://github.com/YOCKOW/SwiftPredicate.git" xlink:href="https://github.com/YOCKOW/SwiftPredicate.git" class="external_repository_anchor">Predicate</a></text>
<text text-anchor="middle" x="229.33" y="-105.41" font-family="monospace" font-size="12px">@1.2.1</text>
</g>

<g id="edge1" class="edge">
<title>BonaFideCharacterSet-&gt;Predicate</title>
<path fill="none" stroke="black" d="M193.35,-179.5C198.52,-170.61 204.38,-160.53 209.85,-151.12" />
<polygon fill="black" stroke="black" points="212.93,-152.78 214.93,-142.37 206.88,-149.26 212.93,-152.78" />
</g>

<g id="node7" class="node">
<title>Ranges</title>
<ellipse fill="none" stroke="black" cx="461.33" cy="-26.87" rx="40.11" ry="26.74" />
<text text-anchor="middle" x="461.33" y="-30.67" font-family="monospace" font-size="12px"><a href="https://github.com/YOCKOW/SwiftRanges.git" xlink:href="https://github.com/YOCKOW/SwiftRanges.git" class="external_repository_anchor">Ranges</a></text>
<text text-anchor="middle" x="461.33" y="-15.67" font-family="monospace" font-size="12px">@3.1.2</text>
</g>

<g id="edge2" class="edge">
<title>BonaFideCharacterSet-&gt;Ranges</title>
<path fill="none" stroke="black" d="M168.05,-179.18C159.82,-153.4 152.72,-114.41 173.33,-89.74 202.14,-55.25 328.58,-64.03 372.33,-53.74 386.44,-50.42 401.65,-46.23 415.43,-42.2" />
<polygon fill="black" stroke="black" points="416.59,-45.51 425.18,-39.3 414.6,-38.8 416.59,-45.51" />
</g>

<g id="node2" class="node">
<title>Bootstring</title>
<ellipse fill="none" stroke="black" cx="52.33" cy="-26.87" rx="52.15" ry="26.74" />
<text text-anchor="middle" x="52.33" y="-30.67" font-family="monospace" font-size="12px"><a href="https://github.com/YOCKOW/SwiftBootstring.git" xlink:href="https://github.com/YOCKOW/SwiftBootstring.git" class="external_repository_anchor">Bootstring</a></text>
<text text-anchor="middle" x="52.33" y="-15.67" font-family="monospace" font-size="12px">@1.1.0</text>
</g>

<g id="node3" class="node">
<title>CGIResponder</title>
<polygon fill="none" stroke="black" points="600.33,-484.7 502.33,-484.7 502.33,-448.7 600.33,-448.7 600.33,-484.7" />
<text text-anchor="middle" x="551.33" y="-463" font-family="monospace" font-size="12px">CGIResponder</text>
</g>

<g id="edge3" class="edge">
<title>CGIResponder-&gt;BonaFideCharacterSet</title>
<path fill="none" stroke="black" d="M502.16,-463.1C421.08,-455.8 261.59,-428.11 194.33,-322.96 179.3,-299.47 175.8,-267.82 175.79,-243.58" />
<polygon fill="black" stroke="black" points="179.29,-243.41 175.98,-233.35 172.29,-243.28 179.29,-243.41" />
</g>

<g id="node4" class="node">
<title>NetworkGear</title>
<ellipse fill="none" stroke="black" cx="308.33" cy="-296.09" rx="63.78" ry="26.74" />
<text text-anchor="middle" x="308.33" y="-299.89" font-family="monospace" font-size="12px"><a href="https://github.com/YOCKOW/SwiftNetworkGear.git" xlink:href="https://github.com/YOCKOW/SwiftNetworkGear.git" class="external_repository_anchor">NetworkGear</a></text>
<text text-anchor="middle" x="308.33" y="-284.89" font-family="monospace" font-size="12px">@0.14.6</text>
</g>

<g id="edge4" class="edge">
<title>CGIResponder-&gt;NetworkGear</title>
<path fill="none" stroke="black" d="M501.99,-459.25C466.13,-452.52 418.01,-439.09 383.33,-412.7 355.86,-391.8 335.53,-357.73 323.01,-331.98" />
<polygon fill="black" stroke="black" points="326.18,-330.48 318.76,-322.91 319.84,-333.45 326.18,-330.48" />
</g>

<g id="node9" class="node">
<title>TemporaryFile</title>
<ellipse fill="none" stroke="black" cx="799.33" cy="-296.09" rx="69.09" ry="26.74" />
<text text-anchor="middle" x="799.33" y="-299.89" font-family="monospace" font-size="12px"><a href="https://github.com/YOCKOW/SwiftTemporaryFile.git" xlink:href="https://github.com/YOCKOW/SwiftTemporaryFile.git" class="external_repository_anchor">TemporaryFile</a></text>
<text text-anchor="middle" x="799.33" y="-284.89" font-family="monospace" font-size="12px">@4.0.3</text>
</g>

<g id="edge5" class="edge">
<title>CGIResponder-&gt;TemporaryFile</title>
<path fill="none" stroke="black" d="M600.45,-450C624.92,-441.01 654.33,-428.39 678.33,-412.7 714.03,-389.36 748.58,-354.77 771.55,-329.51" />
<polygon fill="black" stroke="black" points="774.22,-331.77 778.3,-321.99 769.02,-327.09 774.22,-331.77" />
</g>

<g id="node10" class="node">
<title>TimeSpecification</title>
<ellipse fill="none" stroke="black" cx="896.33" cy="-26.87" rx="82.05" ry="26.74" />
<text text-anchor="middle" x="896.33" y="-30.67" font-family="monospace" font-size="12px"><a href="https://github.com/YOCKOW/SwiftTimeSpecification.git" xlink:href="https://github.com/YOCKOW/SwiftTimeSpecification.git" class="external_repository_anchor">TimeSpecification</a></text>
<text text-anchor="middle" x="896.33" y="-15.67" font-family="monospace" font-size="12px">@3.3.0</text>
</g>

<g id="edge6" class="edge">
<title>CGIResponder-&gt;TimeSpecification</title>
<path fill="none" stroke="black" d="M600.39,-463.71C695.64,-456.95 896.33,-427.26 896.33,-297.09 896.33,-297.09 896.33,-297.09 896.33,-205.35 896.33,-156.62 896.33,-100.37 896.33,-64.48" />
<polygon fill="black" stroke="black" points="899.83,-64.03 896.33,-54.03 892.83,-64.03 899.83,-64.03" />
</g>

<g id="node12" class="node">
<title>XHTML</title>
<ellipse fill="none" stroke="black" cx="438.33" cy="-385.83" rx="45.92" ry="26.74" />
<text text-anchor="middle" x="438.33" y="-389.63" font-family="monospace" font-size="12px"><a href="https://github.com/YOCKOW/SwiftXHTML.git" xlink:href="https://github.com/YOCKOW/SwiftXHTML.git" class="external_repository_anchor">XHTML</a></text>
<text text-anchor="middle" x="438.33" y="-374.63" font-family="monospace" font-size="12px">@2.4.0</text>
</g>

<g id="edge7" class="edge">
<title>CGIResponder-&gt;XHTML</title>
<path fill="none" stroke="black" d="M526.81,-448.59C511.88,-438.17 492.52,-424.66 475.71,-412.93" />
<polygon fill="black" stroke="black" points="477.4,-409.83 467.19,-406.98 473.39,-415.57 477.4,-409.83" />
</g>

<g id="node13" class="node">
<title>yExtensions</title>
<ellipse fill="none" stroke="black" cx="551.33" cy="-206.35" rx="58.88" ry="26.74" />
<text text-anchor="middle" x="551.33" y="-210.15" font-family="monospace" font-size="12px"><a href="https://github.com/YOCKOW/ySwiftExtensions.git" xlink:href="https://github.com/YOCKOW/ySwiftExtensions.git" class="external_repository_anchor">yExtensions</a></text>
<text text-anchor="middle" x="551.33" y="-195.15" font-family="monospace" font-size="12px">@1.7.4</text>
</g>

<g id="edge8" class="edge">
<title>CGIResponder-&gt;yExtensions</title>
<path fill="none" stroke="black" d="M567.58,-448.54C590.2,-423.35 630.08,-373.84 645.33,-322.96 652.18,-300.08 656.66,-290.25 645.33,-269.22 636.18,-252.24 620.1,-239.16 603.81,-229.49" />
<polygon fill="black" stroke="black" points="605.22,-226.27 594.78,-224.47 601.82,-232.39 605.22,-226.27" />
</g>

<g id="edge9" class="edge">
<title>NetworkGear-&gt;BonaFideCharacterSet</title>
<path fill="none" stroke="black" d="M275.52,-272.95C259.49,-262.13 239.96,-248.95 222.63,-237.25" />
<polygon fill="black" stroke="black" points="224.57,-234.34 214.32,-231.65 220.65,-240.14 224.57,-234.34" />
</g>

<g id="edge10" class="edge">
<title>NetworkGear-&gt;Bootstring</title>
<path fill="none" stroke="black" d="M248.1,-287.29C185.64,-277.88 94,-259.93 71.33,-233.22 31.24,-185.99 36.66,-108.8 44.38,-63.72" />
<polygon fill="black" stroke="black" points="47.84,-64.27 46.21,-53.8 40.96,-63 47.84,-64.27" />
</g>

<g id="node6" class="node">
<title>PublicSuffix</title>
<ellipse fill="none" stroke="black" cx="304.33" cy="-26.87" rx="59.29" ry="26.74" />
<text text-anchor="middle" x="304.33" y="-30.67" font-family="monospace" font-size="12px"><a href="https://github.com/YOCKOW/SwiftPublicSuffix.git" xlink:href="https://github.com/YOCKOW/SwiftPublicSuffix.git" class="external_repository_anchor">PublicSuffix</a></text>
<text text-anchor="middle" x="304.33" y="-15.67" font-family="monospace" font-size="12px">@2.0.2</text>
</g>

<g id="edge11" class="edge">
<title>NetworkGear-&gt;PublicSuffix</title>
<path fill="none" stroke="black" d="M307.94,-268.98C307.22,-221.09 305.69,-119.1 304.87,-64.37" />
<polygon fill="black" stroke="black" points="308.37,-64.03 304.72,-54.08 301.37,-64.14 308.37,-64.03" />
</g>

<g id="edge12" class="edge">
<title>NetworkGear-&gt;Ranges</title>
<path fill="none" stroke="black" d="M313.93,-268.93C325.24,-216.92 350.63,-104.27 361.33,-89.74 375.54,-70.44 397.75,-55.83 417.63,-45.67" />
<polygon fill="black" stroke="black" points="419.4,-48.7 426.86,-41.17 416.34,-42.4 419.4,-48.7" />
</g>

<g id="node11" class="node">
<title>UnicodeSupplement</title>
<ellipse fill="none" stroke="black" cx="461.33" cy="-116.61" rx="90.52" ry="26.74" />
<text text-anchor="middle" x="461.33" y="-120.41" font-family="monospace" font-size="12px"><a href="https://github.com/YOCKOW/SwiftUnicodeSupplement.git" xlink:href="https://github.com/YOCKOW/SwiftUnicodeSupplement.git" class="external_repository_anchor">UnicodeSupplement</a></text>
<text text-anchor="middle" x="461.33" y="-105.41" font-family="monospace" font-size="12px">@1.0.1</text>
</g>

<g id="edge13" class="edge">
<title>NetworkGear-&gt;UnicodeSupplement</title>
<path fill="none" stroke="black" d="M328.19,-270.43C347.36,-246.81 377.36,-210.31 404.33,-179.48 412.74,-169.86 422.06,-159.59 430.69,-150.24" />
<polygon fill="black" stroke="black" points="433.51,-152.34 437.73,-142.63 428.37,-147.59 433.51,-152.34" />
</g>

<g id="edge14" class="edge">
<title>NetworkGear-&gt;yExtensions</title>
<path fill="none" stroke="black" d="M355.76,-277.96C396.12,-263.39 454.12,-242.45 496.47,-227.16" />
<polygon fill="black" stroke="black" points="497.85,-230.38 506.07,-223.69 495.48,-223.79 497.85,-230.38" />
</g>

<g id="edge15" class="edge">
<title>Predicate-&gt;Ranges</title>
<path fill="none" stroke="black" d="M268.16,-100.92C309.41,-85.32 374.5,-60.71 417.54,-44.43" />
<polygon fill="black" stroke="black" points="418.8,-47.7 426.91,-40.88 416.32,-41.15 418.8,-47.7" />
</g>

<g id="node8" class="node">
<title>StringComposition</title>
<ellipse fill="none" stroke="black" cx="551.33" cy="-296.09" rx="84.71" ry="26.74" />
<text text-anchor="middle" x="551.33" y="-299.89" font-family="monospace" font-size="12px"><a href="https://github.com/YOCKOW/SwiftStringComposition.git" xlink:href="https://github.com/YOCKOW/SwiftStringComposition.git" class="external_repository_anchor">StringComposition</a></text>
<text text-anchor="middle" x="551.33" y="-284.89" font-family="monospace" font-size="12px">@2.0.2</text>
</g>

<g id="edge16" class="edge">
<title>StringComposition-&gt;yExtensions</title>
<path fill="none" stroke="black" d="M551.33,-268.77C551.33,-260.8 551.33,-251.91 551.33,-243.42" />
<polygon fill="black" stroke="black" points="554.83,-243.35 551.33,-233.35 547.83,-243.35 554.83,-243.35" />
</g>

<g id="edge17" class="edge">
<title>TemporaryFile-&gt;Ranges</title>
<path fill="none" stroke="black" d="M796.4,-268.97C790.05,-225.12 770.89,-136.87 716.33,-89.74 685.85,-63.42 575.85,-43.95 510.7,-34.41" />
<polygon fill="black" stroke="black" points="511.05,-30.93 500.65,-32.97 510.05,-37.86 511.05,-30.93" />
</g>

<g id="edge18" class="edge">
<title>TemporaryFile-&gt;yExtensions</title>
<path fill="none" stroke="black" d="M749.44,-277.44C708.1,-262.82 649.41,-242.05 606.64,-226.92" />
<polygon fill="black" stroke="black" points="607.55,-223.53 596.96,-223.49 605.22,-230.13 607.55,-223.53" />
</g>

<g id="edge19" class="edge">
<title>UnicodeSupplement-&gt;Ranges</title>
<path fill="none" stroke="black" d="M461.33,-89.29C461.33,-81.32 461.33,-72.43 461.33,-63.94" />
<polygon fill="black" stroke="black" points="464.83,-63.87 461.33,-53.87 457.83,-63.87 464.83,-63.87" />
</g>

<g id="edge20" class="edge">
<title>XHTML-&gt;BonaFideCharacterSet</title>
<path fill="none" stroke="black" d="M392.63,-381.3C347.89,-375.66 280.11,-361.01 235.33,-322.96 210.94,-302.24 196.01,-268.59 187.58,-242.92" />
<polygon fill="black" stroke="black" points="190.86,-241.69 184.56,-233.17 184.18,-243.76 190.86,-241.69" />
</g>

<g id="edge21" class="edge">
<title>XHTML-&gt;NetworkGear</title>
<path fill="none" stroke="black" d="M408.83,-364.92C391.34,-353.12 368.9,-337.98 349.67,-324.99" />
<polygon fill="black" stroke="black" points="351.61,-322.08 341.37,-319.39 347.7,-327.89 351.61,-322.08" />
</g>

<g id="edge22" class="edge">
<title>XHTML-&gt;Ranges</title>
<path fill="none" stroke="black" d="M482.44,-377.91C537.21,-368.31 625.83,-349.13 645.33,-322.96 709.6,-236.66 653.72,-168.42 580.33,-89.74 560.34,-68.32 531.26,-53.01 506.85,-42.98" />
<polygon fill="black" stroke="black" points="508,-39.67 497.41,-39.26 505.43,-46.18 508,-39.67" />
</g>

<g id="edge23" class="edge">
<title>XHTML-&gt;StringComposition</title>
<path fill="none" stroke="black" d="M465.39,-363.81C479.28,-353.04 496.45,-339.7 511.78,-327.79" />
<polygon fill="black" stroke="black" points="514.33,-330.25 520.08,-321.35 510.04,-324.72 514.33,-330.25" />
</g>

<g id="edge24" class="edge">
<title>XHTML-&gt;UnicodeSupplement</title>
<path fill="none" stroke="black" d="M436.79,-358.95C436.21,-347.87 435.61,-334.79 435.33,-322.96 434.75,-299.08 433.3,-293.02 435.33,-269.22 438.72,-229.35 447.05,-184.22 453.37,-153.64" />
<polygon fill="black" stroke="black" points="456.88,-153.97 455.51,-143.46 450.03,-152.52 456.88,-153.97" />
</g>

<g id="edge25" class="edge">
<title>XHTML-&gt;yExtensions</title>
<path fill="none" stroke="black" d="M436.85,-358.83C436.69,-333.9 439.83,-296.18 457.33,-269.22 467.83,-253.04 484.21,-240.14 500.37,-230.4" />
<polygon fill="black" stroke="black" points="502.34,-233.3 509.29,-225.31 498.87,-227.22 502.34,-233.3" />
</g>

<g id="edge26" class="edge">
<title>yExtensions-&gt;Ranges</title>
<path fill="none" stroke="black" d="M561.41,-179.72C569.38,-155.07 576.82,-117.55 561.33,-89.74 549.52,-68.55 527.13,-53.71 506.53,-43.88" />
<polygon fill="black" stroke="black" points="507.79,-40.61 497.24,-39.71 504.93,-46.99 507.79,-40.61" />
</g>

<g id="edge27" class="edge">
<title>yExtensions-&gt;UnicodeSupplement</title>
<path fill="none" stroke="black" d="M527.21,-181.84C517.05,-171.94 505.08,-160.26 494.14,-149.6" />
<polygon fill="black" stroke="black" points="496.37,-146.89 486.77,-142.42 491.49,-151.9 496.37,-146.89" />
</g>
</g>
</svg>